HIERARCHY
ROOT reference
{
  OFFSET 0 0 0
  CHANNELS 6 Xposition Yposition Zposition Zrotation Xrotation Yrotation
  JOINT Hips
  {
    OFFSET 355.919 86.4685 225.794
    CHANNELS 3 Zrotation Xrotation Yrotation
    JOINT RightUpLeg
    {
      OFFSET -9.27022 -1.53975 0.0125073
      CHANNELS 3 Zrotation Xrotation Yrotation
      JOINT RightLeg
      {
        OFFSET 0.013591 -41.8786 0.0152335
        CHANNELS 3 Zrotation Xrotation Yrotation
        JOINT RightFoot
        {
          OFFSET -0.635566 -43.1371 -0.638083
          CHANNELS 3 Zrotation Xrotation Yrotation
          End Site
          {
            OFFSET 0 -7.69 17.5
          }
        }
      }
    }
    JOINT LeftUpLeg
    {
      OFFSET 9.3307 -1.62449 -0.0651281
      CHANNELS 3 Zrotation Xrotation Yrotation
      JOINT LeftLeg
      {
        OFFSET 0.136006 -41.8606 -0.0682192
        CHANNELS 3 Zrotation Xrotation Yrotation
        JOINT LeftFoot
        {
          OFFSET 0.555276 -40.3296 1.11688
          CHANNELS 3 Zrotation Xrotation Yrotation
          End Site
          {
            OFFSET 0 -7.69 17.5
          }
        }
      }
    }
    JOINT Spine
    {
      OFFSET 0.0523142 14.2998 0.0636653
      CHANNELS 3 Zrotation Xrotation Yrotation
      JOINT Spine1
      {
        OFFSET 0.0411785 9.71676 0.0113233
        CHANNELS 3 Zrotation Xrotation Yrotation
        JOINT Spine2
        {
          OFFSET 0.0674534 10.1151 -0.00111457
          CHANNELS 3 Zrotation Xrotation Yrotation
          JOINT Spine3
          {
            OFFSET 0.048863 9.72171 0.0174249
            CHANNELS 3 Zrotation Xrotation Yrotation
            JOINT Neck
            {
              OFFSET 0.180558 10.3768 0.0617075
              CHANNELS 3 Zrotation Xrotation Yrotation
              JOINT Head
              {
                OFFSET 0.135918 9.47305 0.0380206
                CHANNELS 3 Zrotation Xrotation Yrotation
                End Site
                {
                  OFFSET 0 15.95 0
                }
              }
            }
            JOINT RightShoulder
            {
              OFFSET -3.15694 6.89408 0.00348883
              CHANNELS 3 Zrotation Xrotation Yrotation
              JOINT RightArm
              {
                OFFSET -12.7409 -0.0031918 0.045926
                CHANNELS 3 Zrotation Xrotation Yrotation
                JOINT RightForeArm
                {
                  OFFSET -26.5086 -0.0806184 0.00400063
                  CHANNELS 3 Zrotation Xrotation Yrotation
                  JOINT RightHand
                  {
                    OFFSET -26.0338 -0.025514 0.155859
                    CHANNELS 3 Zrotation Xrotation Yrotation
                    JOINT RightHandThumb1
                    {
                      OFFSET -2.48905 0.190105 3.12053
                      CHANNELS 3 Zrotation Xrotation Yrotation
                      JOINT RightHandThumb2
                      {
                        OFFSET -3.68274 0 0
                        CHANNELS 3 Zrotation Xrotation Yrotation
                        JOINT RightHandThumb3
                        {
                          OFFSET -2.55832 0 0
                          CHANNELS 3 Zrotation Xrotation Yrotation
                          End Site
                          {
                            OFFSET -2.194 0 0
                          }
                        }
                      }
                    }
                    JOINT RightInHandIndex
                    {
                      OFFSET -3.22368 0.508421 1.97842
                      CHANNELS 3 Zrotation Xrotation Yrotation
                      JOINT RightHandIndex1
                      {
                        OFFSET -5.21684 -0.091368 0.999158
                        CHANNELS 3 Zrotation Xrotation Yrotation
                        JOINT RightHandIndex2
                        {
                          OFFSET -3.61937 0 0
                          CHANNELS 3 Zrotation Xrotation Yrotation
                          JOINT RightHandIndex3
                          {
                            OFFSET -2.0521 0 0
                            CHANNELS 3 Zrotation Xrotation Yrotation
                            End Site
                            {
                              OFFSET -1.805 0 0
                            }
                          }
                        }
                      }
                    }
                    JOINT RightInHandMiddle
                    {
                      OFFSET -3.38211 0.517263 0.756737
                      CHANNELS 3 Zrotation Xrotation Yrotation
                      JOINT RightHandMiddle1
                      {
                        OFFSET -5.17411 -0.084 0.313895
                        CHANNELS 3 Zrotation Xrotation Yrotation
                        JOINT RightHandMiddle2
                        {
                          OFFSET -3.94947 0 0
                          CHANNELS 3 Zrotation Xrotation Yrotation
                          JOINT RightHandMiddle3
                          {
                            OFFSET -2.47579 0 0
                            CHANNELS 3 Zrotation Xrotation Yrotation
                            End Site
                            {
                              OFFSET -1.975 0 0
                            }
                          }
                        }
                      }
                    }
                    JOINT RightInHandRing
                    {
                      OFFSET -3.36516 0.537895 -0.128947
                      CHANNELS 3 Zrotation Xrotation Yrotation
                      JOINT RightHandRing1
                      {
                        OFFSET -4.63474 -0.022105 -0.478947
                        CHANNELS 3 Zrotation Xrotation Yrotation
                        JOINT RightHandRing2
                        {
                          OFFSET -3.44238 0 0
                          CHANNELS 3 Zrotation Xrotation Yrotation
                          JOINT RightHandRing3
                          {
                            OFFSET -2.3881 0 0
                            CHANNELS 3 Zrotation Xrotation Yrotation
                            End Site
                            {
                              OFFSET -1.857 0 0
                            }
                          }
                        }
                      }
                    }
                    JOINT RightInHandPinky
                    {
                      OFFSET -3.16105 0.469368 -1.20179
                      CHANNELS 3 Zrotation Xrotation Yrotation
                      JOINT RightHandPinky1
                      {
                        OFFSET -4.14105 -0.022105 -1.09053
                        CHANNELS 3 Zrotation Xrotation Yrotation
                        JOINT RightHandPinky2
                        {
                          OFFSET -2.75653 0 0
                          CHANNELS 3 Zrotation Xrotation Yrotation
                          JOINT RightHandPinky3
                          {
                            OFFSET -1.74189 0 0
                            CHANNELS 3 Zrotation Xrotation Yrotation
                            End Site
                            {
                              OFFSET -1.645 0 0
                            }
                          }
                        }
                      }
                    }
                  }
                }
              }
            }
            JOINT LeftShoulder
            {
              OFFSET 3.22505 6.94333 0.022328
              CHANNELS 3 Zrotation Xrotation Yrotation
              JOINT LeftArm
              {
                OFFSET 12.8536 -0.0213048 -0.00476292
                CHANNELS 3 Zrotation Xrotation Yrotation
                JOINT LeftForeArm
                {
                  OFFSET 26.4992 -0.0497473 -0.102272
                  CHANNELS 3 Zrotation Xrotation Yrotation
                  JOINT LeftHand
                  {
                    OFFSET 25.9818 -0.0182282 -0.0189166
                    CHANNELS 3 Zrotation Xrotation Yrotation
                    JOINT LeftHandThumb1
                    {
                      OFFSET 2.48905 0.190105 3.12053
                      CHANNELS 3 Zrotation Xrotation Yrotation
                      JOINT LeftHandThumb2
                      {
                        OFFSET 3.68274 0 0
                        CHANNELS 3 Zrotation Xrotation Yrotation
                        JOINT LeftHandThumb3
                        {
                          OFFSET 2.55832 0 0
                          CHANNELS 3 Zrotation Xrotation Yrotation
                          End Site
                          {
                            OFFSET 2.194 0 0
                          }
                        }
                      }
                    }
                    JOINT LeftInHandIndex
                    {
                      OFFSET 3.22368 0.508421 1.97842
                      CHANNELS 3 Zrotation Xrotation Yrotation
                      JOINT LeftHandIndex1
                      {
                        OFFSET 5.21684 -0.091368 0.999158
                        CHANNELS 3 Zrotation Xrotation Yrotation
                        JOINT LeftHandIndex2
                        {
                          OFFSET 3.61937 0 0
                          CHANNELS 3 Zrotation Xrotation Yrotation
                          JOINT LeftHandIndex3
                          {
                            OFFSET 2.0521 0 0
                            CHANNELS 3 Zrotation Xrotation Yrotation
                            End Site
                            {
                              OFFSET 1.805 0 0
                            }
                          }
                        }
                      }
                    }
                    JOINT LeftInHandMiddle
                    {
                      OFFSET 3.38211 0.517263 0.756737
                      CHANNELS 3 Zrotation Xrotation Yrotation
                      JOINT LeftHandMiddle1
                      {
                        OFFSET 5.17411 -0.084 0.313895
                        CHANNELS 3 Zrotation Xrotation Yrotation
                        JOINT LeftHandMiddle2
                        {
                          OFFSET 3.94947 0 0
                          CHANNELS 3 Zrotation Xrotation Yrotation
                          JOINT LeftHandMiddle3
                          {
                            OFFSET 2.47579 0 0
                            CHANNELS 3 Zrotation Xrotation Yrotation
                            End Site
                            {
                              OFFSET 1.975 0 0
                            }
                          }
                        }
                      }
                    }
                    JOINT LeftInHandRing
                    {
                      OFFSET 3.36516 0.537895 -0.128947
                      CHANNELS 3 Zrotation Xrotation Yrotation
                      JOINT LeftHandRing1
                      {
                        OFFSET 4.63474 -0.022105 -0.478947
                        CHANNELS 3 Zrotation Xrotation Yrotation
                        JOINT LeftHandRing2
                        {
                          OFFSET 3.44238 0 0
                          CHANNELS 3 Zrotation Xrotation Yrotation
                          JOINT LeftHandRing3
                          {
                            OFFSET 2.3881 0 0
                            CHANNELS 3 Zrotation Xrotation Yrotation
                            End Site
                            {
                              OFFSET 1.857 0 0
                            }
                          }
                        }
                      }
                    }
                    JOINT LeftInHandPinky
                    {
                      OFFSET 3.16105 0.469368 -1.20179
                      CHANNELS 3 Zrotation Xrotation Yrotation
                      JOINT LeftHandPinky1
                      {
                        OFFSET 4.14105 -0.022105 -1.09053
                        CHANNELS 3 Zrotation Xrotation Yrotation
                        JOINT LeftHandPinky2
                        {
                          OFFSET 2.75653 0 0
                          CHANNELS 3 Zrotation Xrotation Yrotation
                          JOINT LeftHandPinky3
                          {
                            OFFSET 1.74189 0 0
                            CHANNELS 3 Zrotation Xrotation Yrotation
                            End Site
                            {
                              OFFSET 1.645 0 0
                            }
                          }
                        }
                      }
                    }
                  }
                }
              }
            }
          }
        }
      }
    }
  }
}
MOTION
Frames: 2
Frame Time: 0.00833333
9.000000000000000000e+02 0.000000000000000000e+00 0.000000000000000000e+00 0.000000000000000000e+00 0.000000000000000000e+00 0.000000000000000000e+00 2.659367281545036477e+01 1.008583013711781717e+01 -7.313343825203082815e+01 -2.032988943863172082e+01 -5.375614029729327115e+01 -1.641667751481519844e+01 9.129228683415703260e-01 2.196056571661592471e+01 -1.638528788064105157e+01 1.041244445690654530e+01 1.191439591348325600e+01 2.524638030999425453e+01 2.498461019806129713e+01 -4.085449583608512825e+01 1.593724997830256385e+01 -1.195687169821628926e+00 3.313990281956296258e+01 -4.303265380928030237e-01 -1.495807960586256513e+01 -1.421117497831038001e+01 -1.488612100490379575e+01 -9.752374780806039922e+00 8.782464816865770629e+00 1.882514652325034987e+01 -2.219241412154061788e+00 2.521369304979893755e+00 4.552751141284613112e+00 -3.687575300543758150e+00 4.125019416734022393e+00 7.219351967827527972e+00 -2.530221114437971597e-01 -4.982887879299497946e-01 -5.239416153185675329e-01 -2.011269855382308291e-02 -2.048957621814025298e+00 -9.542824160485405827e-01 -4.549386911732256955e+00 -6.679316501432559505e+00 -9.397211416763164848e+00 -1.120365263851552662e-01 -9.399112925989062006e+00 2.225674173727505334e+01 7.028766455352908338e+01 -3.634601796514378869e+00 4.882947765326386502e+01 3.625615132606742463e+01 -4.178245637438743643e+01 3.547655246852499999e+01 1.600734909093240077e+01 -1.726262286236553223e+01 -1.901143439655968947e+01 2.818400000000000105e+01 1.072940000000000005e+01 1.915919999999999845e+01 1.303966133462100826e-14 7.263726849056863120e-15 -1.000000000000000000e+01 3.395925758580491262e-15 4.832865281062725052e-15 -1.000000000000000000e+01 5.031218840554268609e-15 -5.482106039719982162e-15 -2.832887672639582817e-15 1.998179999999999978e+01 8.718970000000000331e-01 2.396399999999999864e+00 2.400000000000000000e+01 9.131141030152194262e-15 2.281812237174770208e-14 2.000000000000000000e+01 -8.586032108590289020e-16 1.302481379868848920e-14 5.031218840554268609e-15 -5.482106039719982162e-15 -2.832887672639582817e-15 2.000000000000000000e+01 2.313191020088326230e-15 2.340074699197276088e-14 2.400000000000000000e+01 6.679873250987242483e-15 4.406244049099675224e-14 2.000000000000000000e+01 9.435588450806122204e-15 -5.711282410590842172e-15 5.031218840554268609e-15 -5.482106039719982162e-15 -2.832887672639582817e-15 1.997479999999999833e+01 -1.025649999999999951e+00 -2.819380000000000219e+00 2.400000000000000000e+01 6.735915120564732998e-15 2.826796607204477560e-14 2.000000000000000000e+01 -9.535333032271249388e-15 -9.004415905760962482e-16 5.031218840554268609e-15 -5.482106039719982162e-15 -2.832887672639582817e-15 1.978150000000000119e+01 -3.009479999999999933e+00 -8.305149999999999366e+00 2.400000000000000000e+01 2.301746300853972948e-15 4.757011795376604598e-14 2.000000000000000000e+01 -5.891646503820777622e-15 -1.434185460376979201e-14 1.324871271407059403e+01 -1.346357709119121893e+01 -3.374237687675367425e+01 -4.217912824641365432e+01 2.826834857974395376e+01 -6.796902551239897150e+01 8.374690148205447215e+00 -5.302014832999824989e+01 -1.699034816447127838e+00 -2.805449639109697557e+01 -2.313710546755399022e+01 5.503822259277949769e+00 -2.818400000000000105e+01 1.072940000000000005e+01 -1.915919999999999845e+01 1.239063523945132889e-14 -3.526308843115754959e-15 1.000000000000000000e+01 1.253102661781216630e-14 -1.182983510614817586e-15 1.000000000000000000e+01 4.571398011180112697e-15 9.001577403397132756e-15 -5.078206414356299748e-15 -1.998179999999999978e+01 8.718970000000000331e-01 -2.396399999999999864e+00 -2.400000000000000000e+01 -1.322077589188678665e-15 2.455131947498749817e-15 -2.000000000000000000e+01 -4.512854066141518031e-15 2.370267282675709945e-15 4.571398011180112697e-15 9.001577403397132756e-15 -5.078206414356299748e-15 -2.000000000000000000e+01 -1.922896006403690493e-15 1.096856486284013592e-15 -2.400000000000000000e+01 -3.422481015672539583e-15 3.114358458485789249e-15 -2.000000000000000000e+01 6.114021378543926505e-16 1.067454567290393649e-14 4.571398011180112697e-15 9.001577403397132756e-15 -5.078206414356299748e-15 -1.997479999999999833e+01 -1.025649999999999951e+00 2.819380000000000219e+00 -2.400000000000000000e+01 -1.692996402361224729e-15 -1.527450398068816841e-14 -2.000000000000000000e+01 -6.400713024856511011e-15 -4.787511114616191720e-15 4.571398011180112697e-15 9.001577403397132756e-15 -5.078206414356299748e-15 -1.978150000000000119e+01 -3.009479999999999933e+00 8.305149999999999366e+00 -2.400000000000000000e+01 2.088446470279304181e-15 1.989723366761559634e-15 -2.000000000000000000e+01 -8.184179150165250339e-15 1.129295470365669823e-14
9.000000000000000000e+02 0.000000000000000000e+00 0.000000000000000000e+00 0.000000000000000000e+00 0.000000000000000000e+00 0.000000000000000000e+00 2.663062000806071694e+01 1.002933047958500268e+01 -7.351529654167597982e+01 -1.992566015924017364e+01 -5.379581831006587578e+01 -1.608176025355022887e+01 8.884891228239570893e-01 2.196199575235656454e+01 -1.633261443967841586e+01 1.038311606294353773e+01 1.187744703228756116e+01 2.539689487978049698e+01 2.519057989708064227e+01 -4.064796272159706803e+01 1.604549890868141304e+01 -1.289784739904361377e+00 3.315334506170679418e+01 -3.791357416668562630e-01 -1.491279262532614247e+01 -1.428368340044017160e+01 -1.463612715558971189e+01 -9.728997635657222531e+00 8.732480077522447814e+00 1.863882036753473059e+01 -2.214946517550121285e+00 2.505429749821646457e+00 4.506323863662097473e+00 -3.680374898995797395e+00 4.098690325956627412e+00 7.146226554721092583e+00 -2.592311388144302176e-01 -5.004137066326550531e-01 -4.986647102043587076e-01 -3.886590725396249502e-02 -2.067205203970884142e+00 -7.476368863883469107e-01 -4.650016670344967906e+00 -6.668139430438625226e+00 -9.038489874956960435e+00 -5.678283011669771341e-02 -9.297702936493671189e+00 2.212193795432120424e+01 7.028931003159809165e+01 -4.024279451773324467e+00 4.858021476115713710e+01 3.641181969136631835e+01 -4.159461154104921121e+01 3.601376545003942198e+01 1.593729496608961682e+01 -1.738571103766748038e+01 -1.891768128334149424e+01 2.818400000000000105e+01 1.072940000000000005e+01 1.915919999999999845e+01 1.308072383960066774e-14 7.230190019902944912e-15 -1.000000000000000000e+01 3.379537213612821817e-15 4.802179858078776096e-15 -1.000000000000000000e+01 4.994780191606057936e-15 -5.453804986834200490e-15 -2.807993198908090599e-15 1.998179999999999978e+01 8.718970000000000331e-01 2.396399999999999864e+00 2.400000000000000000e+01 9.123840416731346447e-15 2.278272073334664085e-14 2.000000000000000000e+01 -8.431706582817431438e-16 1.305705876273600572e-14 4.994780191606057936e-15 -5.453804986834200490e-15 -2.807993198908090599e-15 2.000000000000000000e+01 2.340572207080945338e-15 2.335683499790478191e-14 2.400000000000000000e+01 6.622625974612588072e-15 4.393948375985092889e-14 2.000000000000000000e+01 9.377820887658472730e-15 -5.692648701817936420e-15 4.994780191606057936e-15 -5.453804986834200490e-15 -2.807993198908090599e-15 1.997479999999999833e+01 -1.025649999999999951e+00 -2.819380000000000219e+00 2.400000000000000000e+01 6.717445392270783021e-15 2.815739940888085217e-14 2.000000000000000000e+01 -9.522594416721950020e-15 -8.286899040659264463e-16 4.994780191606057936e-15 -5.453804986834200490e-15 -2.807993198908090599e-15 1.978150000000000119e+01 -3.009479999999999933e+00 -8.305149999999999366e+00 2.400000000000000000e+01 2.272569613643633583e-15 4.741333577931103946e-14 2.000000000000000000e+01 -5.874894746294007425e-15 -1.419364768153331705e-14 1.322738075903072108e+01 -1.349424468506132513e+01 -3.388950417667167159e+01 -4.196470567379210337e+01 2.834211741939113693e+01 -6.826711889578480452e+01 8.638930306822944161e+00 -5.272626630475818388e+01 -1.584357076843080137e+00 -2.811231586989045894e+01 -2.309791301419985743e+01 5.481875446906416371e+00 -2.818400000000000105e+01 1.072940000000000005e+01 -1.915919999999999845e+01 1.238622224901511182e-14 -3.529125099036348731e-15 1.000000000000000000e+01 1.251024403313202746e-14 -1.208484527165558711e-15 1.000000000000000000e+01 4.558454187279638198e-15 8.998459055970661849e-15 -5.059439577119359336e-15 -1.998179999999999978e+01 8.718970000000000331e-01 -2.396399999999999864e+00 -2.400000000000000000e+01 -1.302544814436293389e-15 2.408281615316913295e-15 -2.000000000000000000e+01 -4.490314651564417809e-15 2.349916089881615689e-15 4.558454187279638198e-15 8.998459055970661849e-15 -5.059439577119359336e-15 -2.000000000000000000e+01 -1.921364345485998402e-15 1.076474414996460688e-15 -2.400000000000000000e+01 -3.426914468120347880e-15 3.096080030347564627e-15 -2.000000000000000000e+01 6.178132092339441649e-16 1.066452353380847860e-14 4.558454187279638198e-15 8.998459055970661849e-15 -5.059439577119359336e-15 -1.997479999999999833e+01 -1.025649999999999951e+00 2.819380000000000219e+00 -2.400000000000000000e+01 -1.714911423161951560e-15 -1.524330039337712353e-14 -2.000000000000000000e+01 -6.374878227300311582e-15 -4.696759978225682441e-15 4.558454187279638198e-15 8.998459055970661849e-15 -5.059439577119359336e-15 -1.978150000000000119e+01 -3.009479999999999933e+00 8.305149999999999366e+00 -2.400000000000000000e+01 2.080000003264413194e-15 1.984897041875469578e-15 -2.000000000000000000e+01 -8.163339851710007341e-15 1.127169269288151666e-14
